<svg width="25" height="36" viewBox="0 0 25 36" fill="none" xmlns="http://www.w3.org/2000/svg">
<path fill-rule="evenodd" clip-rule="evenodd" d="M1 35L12.5 29.2284L24 35V4.29808C24 2.4766 22.5289 1 20.7143 1H4.28571C2.47106 1 1 2.4766 1 4.29808V35ZM12.5 25.541L4.28571 29.6636V4.29808H20.7143V29.6636L12.5 25.541Z" fill="#E3E3E3"/>
<path d="M2.64286 31.5073V3.47356H22.3571V31.5073L11.6786 27.3847L2.64286 31.5073Z" fill="#E3E3E3"/>
<path fill-rule="evenodd" clip-rule="evenodd" d="M1 35L12.5 29.2284L24 35V4.29808C24 2.4766 22.5289 1 20.7143 1H4.28571C2.47106 1 1 2.4766 1 4.29808V35ZM12.5 25.541L4.28571 29.6636V4.29808H20.7143V29.6636L12.5 25.541Z" stroke="#E3E3E3"/>
<path d="M2.64286 31.5073V3.47356H22.3571V31.5073L11.6786 27.3847L2.64286 31.5073Z" stroke="#E3E3E3"/>
</svg>
