<svg width="53" height="44" viewBox="0 0 53 44" fill="none" xmlns="http://www.w3.org/2000/svg">
<path d="M4 40.5V43H51L51.5 22.5V4.5L47 3L36.5 1L32 1.5L27.5 3.5L23.5 1H17.5L8 4.5L4.5 5.5L3.5 17L4 34L2.5 35.5L4 40.5Z" fill="white"/>
<path d="M6.99689 4.02325C12.8452 1.77693 25.1631 -1.36792 27.6481 4.02325" stroke="black" stroke-width="1.5"/>
<path d="M51.2294 3.8837V40.6744" stroke="black" stroke-width="1.5"/>
<path d="M51.6481 4.58139C44.825 1.91389 30.4542 -1.82062 27.555 4.58139" stroke="black" stroke-width="1.5"/>
<path d="M27.462 41.0465V4.02325" stroke="black" stroke-width="1.5"/>
<path d="M4.29922 40.8605V43H51.276V40.6744" stroke="black" stroke-width="1.5"/>
<path d="M3.83408 41.0465C10.5781 38.5194 24.7825 34.9814 27.648 41.0465" stroke="black" stroke-width="0.75"/>
<path d="M51.369 41.0465C44.625 38.5194 30.4206 34.9814 27.555 41.0465" stroke="black" stroke-width="0.75"/>
<path d="M4.02014 34.0233C9.48991 34.0233 6.29921 12.0698 4.02014 1.09305C1.74107 12.0698 -1.44963 34.0233 4.02014 34.0233ZM4.02014 34.0233L5.50851 35.5117L4.02014 41.4186" stroke="black" stroke-width="0.75"/>
<path d="M3.92713 1C1.84961 11.6822 -1.05892 33.1954 3.92713 33.7907C8.91317 34.3861 6.00465 12.1783 3.92713 1Z" fill="black" stroke="black" stroke-width="0.75"/>
<path d="M4.02014 40.8605V36.2558" stroke="black" stroke-width="0.75"/>
<path d="M51.3225 41.2791H3.92712" stroke="black" stroke-width="0.75"/>
<path d="M27.7876 40.814C28.8109 39.5892 34.876 37.8744 50.9504 40.814" stroke="black" stroke-width="0.75"/>
<path d="M27.6945 40.907C29.1209 40.4574 35.7039 39.8279 50.6248 40.907" stroke="black" stroke-width="0.75"/>
<path d="M27.462 40.623C26.4387 39.3982 20.3736 37.6835 4.29921 40.623" stroke="black" stroke-width="0.75"/>
<path d="M27.5085 40.8981C26.0822 40.4485 19.4992 39.819 4.57828 40.8981" stroke="black" stroke-width="0.75"/>
<path d="M30.7178 8.19693C33.369 7.2667 40.662 6.34577 48.6248 10.1039" stroke="black" stroke-width="0.75"/>
<path d="M30.7178 11.2543C33.369 10.3241 40.662 9.40314 48.6248 13.1613" stroke="black" stroke-width="0.75"/>
<path d="M30.7178 14.3241C33.369 13.3939 40.662 12.4729 48.6248 16.2311" stroke="black" stroke-width="0.75"/>
<path d="M30.7178 23.4404C33.369 22.5101 40.662 21.5892 48.6248 25.3473" stroke="black" stroke-width="0.75"/>
<path d="M30.7178 26.4977C33.369 25.5675 40.662 24.6466 48.6248 28.4047" stroke="black" stroke-width="0.75"/>
<path d="M30.7178 29.5675C33.369 28.6373 40.662 27.7164 48.6248 31.4745" stroke="black" stroke-width="0.75"/>
<path d="M26.0201 8.19693C23.369 7.2667 16.076 6.34577 8.11316 10.1039" stroke="black" stroke-width="0.75"/>
<path d="M26.0201 11.2543C23.369 10.3241 16.076 9.40314 8.11316 13.1613" stroke="black" stroke-width="0.75"/>
<path d="M26.0201 14.3241C23.369 13.3939 16.076 12.4729 8.11316 16.2311" stroke="black" stroke-width="0.75"/>
<path d="M26.0201 23.4404C23.369 22.5101 16.076 21.5892 8.11316 25.3473" stroke="black" stroke-width="0.75"/>
<path d="M26.0201 26.4977C23.369 25.5675 16.076 24.6466 8.11316 28.4047" stroke="black" stroke-width="0.75"/>
<path d="M26.0201 29.5675C23.369 28.6373 16.076 27.7164 8.11316 31.4745" stroke="black" stroke-width="0.75"/>
<path d="M4.02014 34.0233C-1.44963 34.0233 1.74107 12.0698 4.02014 1.09305C6.29921 12.0698 9.48991 34.0233 4.02014 34.0233ZM4.02014 34.0233L2.53177 35.5117L4.02014 41.4186M4.02014 34.0233L2.53177 35.5117L4.02014 41.4186" stroke="black" stroke-width="0.75"/>
<path d="M4.06665 10.0698C4.91936 15.0931 6.24339 26.4977 4.71781 31.9303" stroke="white" stroke-width="2"/>
<path d="M5.41549 21.3721C5.63874 25.8745 5.04339 30.7985 4.71781 31.9303L5.78758 30.814C6.08215 29.2791 6.48905 22.1461 6.20618 19.9303C5.92331 17.7144 5.50851 13.7287 5.04339 10.0233L4.57828 12.4884C4.71781 13.5272 5.19223 16.8698 5.41549 21.3721Z" fill="white"/>
</svg>
