<svg width="17" height="18" viewBox="0 0 17 18" fill="none" xmlns="http://www.w3.org/2000/svg">
<path fill-rule="evenodd" clip-rule="evenodd" d="M12.2717 0C12.8282 0 13.3617 0.222255 13.7514 0.615042L16.3871 3.25138C16.7795 3.64389 17 4.17625 17 4.73134C17 5.28644 16.7795 5.81879 16.3871 6.2113L6.76386 15.8336C6.17015 16.5186 5.32855 16.9395 4.3644 17.0057H0V16.1555L0.00276049 12.5719C0.0751723 11.6754 0.491865 10.8418 1.12752 10.2816L10.7911 0.616067C11.1829 0.221753 11.7158 0 12.2717 0ZM4.3047 15.3074C4.75879 15.2752 5.18147 15.0639 5.52088 14.6755L11.9487 8.24627L8.75723 5.05453L2.292 11.5196C1.94763 11.8243 1.73458 12.2505 1.70032 12.6404V15.3058L4.3047 15.3074ZM9.95956 3.85222L13.1509 7.04382L15.1854 5.00894C15.259 4.93531 15.3003 4.83545 15.3003 4.73132C15.3003 4.62719 15.259 4.52733 15.1854 4.4537L12.5472 1.815C12.4745 1.74162 12.3754 1.70035 12.272 1.70035C12.1687 1.70035 12.0696 1.74162 11.9968 1.815L9.95956 3.85222Z" fill="black"/>
</svg>
