<svg width="26" height="26" viewBox="0 0 26 26" fill="none" xmlns="http://www.w3.org/2000/svg">
<path fill-rule="evenodd" clip-rule="evenodd" d="M20.7655 23.3799L23.3523 20.7932L22.4412 17.4835L22.8381 16.5356L25.8334 14.8455V11.1875L22.8466 9.49035L22.4564 8.54412L23.3789 5.23275L20.7903 2.64798L17.4804 3.55873L16.5346 3.16218L14.8443 0.166672H11.1864L9.48919 3.15339L8.54318 3.54355L5.23233 2.61995L2.64784 5.20444L3.55875 8.51496L3.16219 9.46074L0.166687 11.151V14.8079L3.15071 16.5088L3.54129 17.4559L2.61898 20.7667L5.20446 23.3522L8.51497 22.4413L9.46087 22.8379L11.1512 25.8322H14.8082L16.5079 22.8481L17.4547 22.4576L20.7655 23.3799ZM20.9948 14.8965L19.9777 17.3257L20.7423 20.1033L20.0791 20.7665L17.3074 19.9943L14.8771 20.9966L13.4519 23.4988H12.5134L11.1 20.995L8.6735 19.9776L5.8944 20.7423L5.23239 20.0803L6.00452 17.3086L5.00231 14.8785L2.50002 13.4522V12.5135L5.00497 11.1001L6.02241 8.67348L5.25773 5.89438L5.91837 5.23375L8.69007 6.00695L11.1212 5.00432L12.5442 2.50001H13.4818L14.8952 5.00495L17.3218 6.0224L20.1015 5.25757L20.7651 5.92027L19.9932 8.69145L20.9957 11.1223L23.5 12.5454V13.4829L20.9948 14.8965ZM13 17.6667C10.4227 17.6667 8.33335 15.5773 8.33335 13C8.33335 10.4227 10.4227 8.33334 13 8.33334C15.5773 8.33334 17.6667 10.4227 17.6667 13C17.6667 15.5773 15.5773 17.6667 13 17.6667ZM15.3334 13C15.3334 14.2887 14.2887 15.3333 13 15.3333C11.7114 15.3333 10.6667 14.2887 10.6667 13C10.6667 11.7113 11.7114 10.6667 13 10.6667C14.2887 10.6667 15.3334 11.7113 15.3334 13Z" fill="white"/>
</svg>
